M48
; DRILL file {KiCad 9.0.3} date 2026-09-01T11:24:10-0400
; FORMAT={-:-/ absolute / metric / decimal}
; #@! TF.CreationDate,2026-09-01T11:24:10-04:00
; #@! TF.GenerationSoftware,Kicad,Pcbnew,9.0.3
; #@! TF.FileFunction,Plated,1,2,PTH
FMAT,2
METRIC
; #@! TA.AperFunction,Plated,PTH,ComponentDrill
T1C1.000
; #@! TA.AperFunction,Plated,PTH,ComponentDrill
T2C2.200
%
G90
G05
T1
X137.5Y-79.46
X137.5Y-82.0
X137.5Y-84.54
X137.5Y-87.08
X137.5Y-89.62
X137.5Y-92.16
X137.5Y-94.7
X137.5Y-97.24
X137.5Y-99.78
X137.5Y-102.32
X137.5Y-104.86
X137.5Y-107.4
X137.5Y-109.94
X140.07Y-53.37
X142.61Y-53.37
X145.15Y-53.37
X147.69Y-53.37
X150.23Y-53.37
X152.77Y-53.37
X160.36Y-79.46
X160.36Y-82.0
X160.36Y-84.54
X160.36Y-87.08
X160.36Y-89.62
X160.36Y-92.16
X160.36Y-94.7
X160.36Y-97.24
X160.36Y-99.78
X160.36Y-102.32
X160.36Y-104.86
X160.36Y-107.4
X160.36Y-109.94
T2
X167.88Y-98.01
X167.96Y-44.33
M30
