%TF.GenerationSoftware,KiCad,Pcbnew,9.0.3*%
%TF.CreationDate,2026-09-01T11:24:25-04:00*%
%TF.ProjectId,HVAC-System-Monitor,48564143-2d53-4797-9374-656d2d4d6f6e,rev?*%
%TF.SameCoordinates,Original*%
%TF.FileFunction,Copper,L1,Top*%
%TF.FilePolarity,Positive*%
%FSLAX46Y46*%
G04 Gerber Fmt 4.6, Leading zero omitted, Abs format (unit mm)*
G04 Created by KiCad (PCBNEW 9.0.3) date 2026-09-01 11:24:25*
%MOMM*%
%LPD*%
G01*
G04 APERTURE LIST*
%TA.AperFunction,NonConductor*%
%ADD10C,0.200000*%
%TD*%
%TA.AperFunction,ComponentPad*%
%ADD11R,1.700000X1.700000*%
%TD*%
%TA.AperFunction,ComponentPad*%
%ADD12C,1.700000*%
%TD*%
%TA.AperFunction,ComponentPad*%
%ADD13C,4.400000*%
%TD*%
%TA.AperFunction,Conductor*%
%ADD14C,0.200000*%
%TD*%
G04 APERTURE END LIST*
D10*
X128920000Y-39090000D02*
X171910000Y-39090000D01*
X171910000Y-127790000D01*
X128920000Y-127790000D01*
X128920000Y-39090000D01*
D11*
%TO.P,J1,1,Pin_1*%
%TO.N,VCC*%
X140070000Y-53370000D03*
D12*
%TO.P,J1,2,Pin_2*%
%TO.N,GND*%
X142610000Y-53370000D03*
%TO.P,J1,3,Pin_3*%
%TO.N,SCL*%
X145150000Y-53370000D03*
%TO.P,J1,4,Pin_4*%
%TO.N,SDA*%
X147690000Y-53370000D03*
%TO.P,J1,5,Pin_5*%
%TO.N,unconnected-(J1-Pin_5-Pad5)*%
X150230000Y-53370000D03*
%TO.P,J1,6,Pin_6*%
%TO.N,unconnected-(J1-Pin_6-Pad6)*%
X152770000Y-53370000D03*
%TD*%
D13*
%TO.P,H2,1,1*%
%TO.N,GND*%
X167880000Y-98010000D03*
%TD*%
D12*
%TO.P,J2,GND1,GND*%
%TO.N,GND*%
X137500000Y-102320000D03*
%TO.P,J2,GND2,GND*%
X137500000Y-107400000D03*
%TO.P,J2,IO0,IO0*%
%TO.N,unconnected-(J2-PadIO0)*%
X160360000Y-104860000D03*
%TO.P,J2,IO08,IO08*%
%TO.N,unconnected-(J2-PadIO08)*%
X160360000Y-87080000D03*
%TO.P,J2,IO12,IO12*%
%TO.N,unconnected-(J2-PadIO12)*%
X160360000Y-89620000D03*
%TO.P,J2,IO15,IO15*%
%TO.N,unconnected-(J2-PadIO15)*%
X160360000Y-82000000D03*
%TO.P,J2,IO16,IO16*%
%TO.N,DIO1*%
X160360000Y-79460000D03*
%TO.P,J2,IO33,IO33*%
X160360000Y-97240000D03*
%TO.P,J2,IO34,IO34*%
%TO.N,unconnected-(J2-PadIO34)*%
X160360000Y-99780000D03*
%TO.P,J2,IO35,IO35*%
%TO.N,unconnected-(J2-PadIO35)*%
X160360000Y-102320000D03*
%TO.P,J2,IO36,IO36*%
%TO.N,unconnected-(J2-PadIO36)*%
X160360000Y-107400000D03*
%TO.P,J2,IO37,IO37*%
%TO.N,unconnected-(J2-PadIO37)*%
X160360000Y-109940000D03*
%TO.P,J2,IO38,IO38*%
%TO.N,unconnected-(J2-PadIO38)*%
X137500000Y-79460000D03*
%TO.P,J2,IO39,IO39*%
%TO.N,unconnected-(J2-PadIO39)*%
X137500000Y-87080000D03*
%TO.P,J2,IO40,IO40*%
%TO.N,unconnected-(J2-PadIO40)*%
X137500000Y-89620000D03*
%TO.P,J2,IO41,IO41*%
%TO.N,unconnected-(J2-PadIO41)*%
X137500000Y-92160000D03*
%TO.P,J2,IO42,IO42*%
%TO.N,unconnected-(J2-PadIO42)*%
X137500000Y-99780000D03*
%TO.P,J2,IO45,IO45*%
%TO.N,unconnected-(J2-PadIO45)*%
X137500000Y-94700000D03*
%TO.P,J2,IO46,IO46*%
%TO.N,unconnected-(J2-PadIO46)*%
X137500000Y-97240000D03*
%TO.P,J2,IO47,IO47*%
%TO.N,SDA*%
X160360000Y-94700000D03*
%TO.P,J2,IO48,IO48*%
%TO.N,SCL*%
X160360000Y-92160000D03*
%TO.P,J2,RST,RST*%
%TO.N,unconnected-(J2-PadRST)*%
X160360000Y-84540000D03*
%TO.P,J2,RXD,RXD*%
%TO.N,unconnected-(J2-PadRXD)*%
X137500000Y-84540000D03*
%TO.P,J2,TXD,TXD*%
%TO.N,unconnected-(J2-PadTXD)*%
X137500000Y-82000000D03*
%TO.P,J2,VCC,VCC*%
%TO.N,+5V*%
X137500000Y-109940000D03*
%TO.P,J2,VDD,VDD*%
%TO.N,VCC*%
X137500000Y-104860000D03*
%TD*%
D13*
%TO.P,H1,1,1*%
%TO.N,GND*%
X167960000Y-44330000D03*
%TD*%
D14*
%TO.N,GND*%
X142610000Y-97210000D02*
X137500000Y-102320000D01*
X142610000Y-53370000D02*
X142610000Y-97210000D01*
%TO.N,SDA*%
X147690000Y-82030000D02*
X147690000Y-53370000D01*
X160360000Y-94700000D02*
X147690000Y-82030000D01*
%TO.N,SCL*%
X145150000Y-53370000D02*
X146314900Y-52205100D01*
X148960000Y-80760000D02*
X160360000Y-92160000D01*
X148960000Y-52984500D02*
X148960000Y-80760000D01*
X146314900Y-52205100D02*
X148180600Y-52205100D01*
X148180600Y-52205100D02*
X148960000Y-52984500D01*
%TO.N,VCC*%
X140070000Y-54521700D02*
X136289900Y-58301800D01*
X136289900Y-58301800D02*
X136289900Y-103649900D01*
X140070000Y-53370000D02*
X140070000Y-54521700D01*
X136289900Y-103649900D02*
X137500000Y-104860000D01*
%TO.N,DIO1*%
X160360000Y-97240000D02*
X161576100Y-96023900D01*
X161576100Y-80676100D02*
X160360000Y-79460000D01*
X161576100Y-96023900D02*
X161576100Y-80676100D01*
%TD*%
M02*
