%TF.GenerationSoftware,KiCad,Pcbnew,10.0.6*%
%TF.CreationDate,2026-09-02T10:57:17-04:00*%
%TF.ProjectId,Blower_Node,426c6f77-6572-45f4-9e6f-64652e6b6963,rev?*%
%TF.SameCoordinates,Original*%
%TF.FileFunction,Copper,L2,Bot*%
%TF.FilePolarity,Positive*%
%FSLAX46Y46*%
G04 Gerber Fmt 4.6, Leading zero omitted, Abs format (unit mm)*
G04 Created by KiCad (PCBNEW 10.0.6) date 2026-09-02 10:57:17*
%MOMM*%
%LPD*%
G01*
G04 APERTURE LIST*
%TA.AperFunction,ComponentPad*%
%ADD10R,1.700000X1.700000*%
%TD*%
%TA.AperFunction,ComponentPad*%
%ADD11C,1.700000*%
%TD*%
%TA.AperFunction,Conductor*%
%ADD12C,0.200000*%
%TD*%
%ADD13R,1.700000X1.700000*%
%ADD14C,1.700000*%
%ADD15C,0.150000*%
%ADD16C,0.120000*%
G04 APERTURE END LIST*
D10*
%TO.P,J1,1,Pin_1_1*%
%TO.N,unconnected-(J1-Pin_1-Pad1)*%
X129650000Y-84160000D03*
D11*
%TO.P,J1,2,Pin_2_2*%
%TO.N,Net-(J1-Pin_2)*%
X129650000Y-81620000D03*
%TO.P,J1,3,Pin_3_3*%
%TO.N,Net-(J1-Pin_3)*%
X129650000Y-79080000D03*
%TO.P,J1,4,Pin_4_4*%
%TO.N,unconnected-(J1-Pin_4-Pad4)*%
X129650000Y-76540000D03*
%TO.P,J1,5,Pin_5_5*%
%TO.N,unconnected-(J1-Pin_5-Pad5)*%
X129650000Y-74000000D03*
%TO.P,J1,6,Pin_6_6*%
%TO.N,unconnected-(J1-Pin_6-Pad6)*%
X129650000Y-71460000D03*
%TO.P,J1,7,Pin_7_7*%
%TO.N,unconnected-(J1-Pin_7-Pad7)*%
X129650000Y-68920000D03*
%TO.P,J1,8,Pin_8_8*%
%TO.N,unconnected-(J1-Pin_8-Pad8)*%
X129650000Y-66380000D03*
%TO.P,J1,9,Pin_9_9*%
%TO.N,unconnected-(J1-Pin_9-Pad9)*%
X129650000Y-63840000D03*
%TD*%
D10*
%TO.P,J2,1,Pin_1_1*%
%TO.N,unconnected-(J2-Pin_1-Pad1)*%
X147500000Y-84160000D03*
D11*
%TO.P,J2,2,Pin_2_2*%
%TO.N,unconnected-(J2-Pin_2-Pad2)*%
X147500000Y-81620000D03*
%TO.P,J2,3,Pin_3_3*%
%TO.N,unconnected-(J2-Pin_3-Pad3)*%
X147500000Y-79080000D03*
%TO.P,J2,4,Pin_4_4*%
%TO.N,Net-(J2-Pin_4)*%
X147500000Y-76540000D03*
%TO.P,J2,5,Pin_5_5*%
%TO.N,Net-(J2-Pin_5)*%
X147500000Y-74000000D03*
%TO.P,J2,6,Pin_6_6*%
%TO.N,unconnected-(J2-Pin_6-Pad6)*%
X147500000Y-71460000D03*
%TO.P,J2,7,Pin_7_7*%
%TO.N,unconnected-(J2-Pin_7-Pad7)*%
X147500000Y-68920000D03*
%TO.P,J2,8,Pin_8_8*%
%TO.N,unconnected-(J2-Pin_8-Pad8)*%
X147500000Y-66380000D03*
%TO.P,J2,9,Pin_9_9*%
%TO.N,unconnected-(J2-Pin_9-Pad9)*%
X147500000Y-63840000D03*
%TD*%
D10*
%TO.P,U1,1,VCC_1*%
%TO.N,Net-(J1-Pin_3)*%
X116500000Y-83610000D03*
D11*
%TO.P,U1,2,GND_2*%
%TO.N,Net-(J1-Pin_2)*%
X116500000Y-81070000D03*
%TO.P,U1,3,SCL_3*%
%TO.N,Net-(J2-Pin_4)*%
X116500000Y-78530000D03*
%TO.P,U1,4,SDA_4*%
%TO.N,Net-(J2-Pin_5)*%
X116500000Y-75990000D03*
%TO.P,U1,5,XDA_5*%
%TO.N,unconnected-(U1-XDA-Pad5)*%
X116500000Y-73450000D03*
%TO.P,U1,6,XCL_6*%
%TO.N,unconnected-(U1-XCL-Pad6)*%
X116500000Y-70910000D03*
%TO.P,U1,7,ADD_7*%
%TO.N,unconnected-(U1-ADD-Pad7)*%
X116500000Y-68370000D03*
%TO.P,U1,8,INT_8*%
%TO.N,unconnected-(U1-INT-Pad8)*%
X116500000Y-65830000D03*
%TD*%
%TO.N,Net-(J1-Pin_2)*%
D12*
X117050000Y-81620000D02*
X116500000Y-81070000D01*
X129650000Y-81620000D02*
X117050000Y-81620000D01*
%TD*%
D13*
%TO.C,J1*%
X129650000Y-84160000D03*
D14*
X129650000Y-81620000D03*
X129650000Y-79080000D03*
X129650000Y-76540000D03*
X129650000Y-74000000D03*
X129650000Y-71460000D03*
X129650000Y-68920000D03*
X129650000Y-66380000D03*
X129650000Y-63840000D03*
%TD*%
D13*
%TO.C,J2*%
X147500000Y-84160000D03*
D14*
X147500000Y-81620000D03*
X147500000Y-79080000D03*
X147500000Y-76540000D03*
X147500000Y-74000000D03*
X147500000Y-71460000D03*
X147500000Y-68920000D03*
X147500000Y-66380000D03*
X147500000Y-63840000D03*
%TD*%
D13*
%TO.C,U1*%
X116500000Y-83610000D03*
D14*
X116500000Y-81070000D03*
X116500000Y-78530000D03*
X116500000Y-75990000D03*
X116500000Y-73450000D03*
X116500000Y-70910000D03*
X116500000Y-68370000D03*
X116500000Y-65830000D03*
%TD*%
D15*
X129316666Y-86384819D02*
X129316666Y-87099104D01*
X129316666Y-87099104D02*
X129269047Y-87241961D01*
X129269047Y-87241961D02*
X129173809Y-87337200D01*
X129173809Y-87337200D02*
X129030952Y-87384819D01*
X129030952Y-87384819D02*
X128935714Y-87384819D01*
X130316666Y-87384819D02*
X129745238Y-87384819D01*
X130030952Y-87384819D02*
X130030952Y-86384819D01*
X130030952Y-86384819D02*
X129935714Y-86527676D01*
X129935714Y-86527676D02*
X129840476Y-86622914D01*
X129840476Y-86622914D02*
X129745238Y-86670533D01*
X147166666Y-86384819D02*
X147166666Y-87099104D01*
X147166666Y-87099104D02*
X147119047Y-87241961D01*
X147119047Y-87241961D02*
X147023809Y-87337200D01*
X147023809Y-87337200D02*
X146880952Y-87384819D01*
X146880952Y-87384819D02*
X146785714Y-87384819D01*
X147595238Y-86480057D02*
X147642857Y-86432438D01*
X147642857Y-86432438D02*
X147738095Y-86384819D01*
X147738095Y-86384819D02*
X147976190Y-86384819D01*
X147976190Y-86384819D02*
X148071428Y-86432438D01*
X148071428Y-86432438D02*
X148119047Y-86480057D01*
X148119047Y-86480057D02*
X148166666Y-86575295D01*
X148166666Y-86575295D02*
X148166666Y-86670533D01*
X148166666Y-86670533D02*
X148119047Y-86813390D01*
X148119047Y-86813390D02*
X147547619Y-87384819D01*
X147547619Y-87384819D02*
X148166666Y-87384819D01*
X115738095Y-85834819D02*
X115738095Y-86644342D01*
X115738095Y-86644342D02*
X115785714Y-86739580D01*
X115785714Y-86739580D02*
X115833333Y-86787200D01*
X115833333Y-86787200D02*
X115928571Y-86834819D01*
X115928571Y-86834819D02*
X116119047Y-86834819D01*
X116119047Y-86834819D02*
X116214285Y-86787200D01*
X116214285Y-86787200D02*
X116261904Y-86739580D01*
X116261904Y-86739580D02*
X116309523Y-86644342D01*
X116309523Y-86644342D02*
X116309523Y-85834819D01*
X117309523Y-86834819D02*
X116738095Y-86834819D01*
X117023809Y-86834819D02*
X117023809Y-85834819D01*
X117023809Y-85834819D02*
X116928571Y-85977676D01*
X116928571Y-85977676D02*
X116833333Y-86072914D01*
X116833333Y-86072914D02*
X116738095Y-86120533D01*
%TO.C,J1*%
D16*
X128320000Y-82890000D02*
X128320000Y-62510000D01*
X128320000Y-85490000D02*
X128320000Y-84160000D01*
X129650000Y-85490000D02*
X128320000Y-85490000D01*
X130980000Y-62510000D02*
X128320000Y-62510000D01*
X130980000Y-82890000D02*
X128320000Y-82890000D01*
X130980000Y-82890000D02*
X130980000Y-62510000D01*
%TO.C,J2*%
X146170000Y-82890000D02*
X146170000Y-62510000D01*
X146170000Y-85490000D02*
X146170000Y-84160000D01*
X147500000Y-85490000D02*
X146170000Y-85490000D01*
X148830000Y-62510000D02*
X146170000Y-62510000D01*
X148830000Y-82890000D02*
X146170000Y-82890000D01*
X148830000Y-82890000D02*
X148830000Y-62510000D01*
%TO.C,U1*%
X115170000Y-82340000D02*
X115170000Y-64500000D01*
X115170000Y-84940000D02*
X115170000Y-83610000D01*
X116500000Y-84940000D02*
X115170000Y-84940000D01*
X117830000Y-64500000D02*
X115170000Y-64500000D01*
X117830000Y-82340000D02*
X115170000Y-82340000D01*
X117830000Y-82340000D02*
X117830000Y-64500000D01*
%TD*%
M02*
