M48
; DRILL file KiCad 10.0.6 date 2026-09-02T10:58:48
; FORMAT={-:-/ absolute / metric / decimal}
; #@! TF.CreationDate,2026-09-02T10:58:48-04:00
; #@! TF.GenerationSoftware,Kicad,Pcbnew,10.0.6
; #@! TF.FileFunction,Plated,1,2,PTH
FMAT,2
METRIC
; #@! TA.AperFunction,Plated,PTH,ComponentDrill
T1C1.000
%
G90
G05
T1
X116.5Y-65.83
X116.5Y-68.37
X116.5Y-70.91
X116.5Y-73.45
X116.5Y-75.99
X116.5Y-78.53
X116.5Y-81.07
X116.5Y-83.61
X129.65Y-63.84
X129.65Y-66.38
X129.65Y-68.92
X129.65Y-71.46
X129.65Y-74.0
X129.65Y-76.54
X129.65Y-79.08
X129.65Y-81.62
X129.65Y-84.16
X147.5Y-63.84
X147.5Y-66.38
X147.5Y-68.92
X147.5Y-71.46
X147.5Y-74.0
X147.5Y-76.54
X147.5Y-79.08
X147.5Y-81.62
X147.5Y-84.16
M30
